<?xml version="1.0" encoding="UTF-8"?>
<!DOCTYPE svg PUBLIC "-//W3C//DTD SVG 1.1//EN" "http://www.w3.org/Graphics/SVG/1.1/DTD/svg11.dtd">
<!-- Creator: CorelDRAW 2020 (64-Bit) -->
<svg xmlns="http://www.w3.org/2000/svg" xml:space="preserve" width="4.14276cm" height="4.5507cm" version="1.1" style="shape-rendering:geometricPrecision; text-rendering:geometricPrecision; image-rendering:optimizeQuality; fill-rule:evenodd; clip-rule:evenodd"
viewBox="0 0 4141.7 4549.54"
 xmlns:xlink="http://www.w3.org/1999/xlink"
 xmlns:xodm="http://www.corel.com/coreldraw/odm/2003">
 <defs>
  <style type="text/css">
   <![CDATA[
    .fil0 {fill:black}
   ]]>
  </style>
 </defs>
 <g id="Layer_x0020_1">
  <metadata id="CorelCorpID_0Corel-Layer"/>
  <path class="fil0" d="M4141.7 0l-3728.11 0 -408.87 0 -4.73 0 0 408.87 3.79 0 -3.79 1654.64 413.59 0 0 -1654.17 3728.11 4.26 0 -413.59zm-3728.11 2486.03l0 1649.91 3728.11 0 0 413.59 -3728.11 -4.26 0 4.26 -408.87 0 -0.01 -4.72 -4.72 -0.01 0 -408.87 3.78 0 -3.78 -1649.91 413.59 0zm3314.3 -4.47l-2904.99 0 0 -408.87 2904.99 -4.73 0 413.59z"/>
 </g>
</svg>
