<?xml version="1.0" encoding="UTF-8"?>
<!DOCTYPE svg PUBLIC "-//W3C//DTD SVG 1.1//EN" "http://www.w3.org/Graphics/SVG/1.1/DTD/svg11.dtd">
<!-- Creator: CorelDRAW 2020 (64-Bit) -->
<svg xmlns="http://www.w3.org/2000/svg" xml:space="preserve" width="23.8182cm" height="3.14909cm" version="1.1" style="shape-rendering:geometricPrecision; text-rendering:geometricPrecision; image-rendering:optimizeQuality; fill-rule:evenodd; clip-rule:evenodd"
viewBox="0 0 23817.96 3149.05"
 xmlns:xlink="http://www.w3.org/1999/xlink"
 xmlns:xodm="http://www.corel.com/coreldraw/odm/2003">
 <defs>
  <style type="text/css">
   <![CDATA[
    .fil0 {fill:black}
    .fil1 {fill:#A2A28F}
   ]]>
  </style>
 </defs>
 <g id="Layer_x0020_1">
  <metadata id="CorelCorpID_0Corel-Layer"/>
  <g id="_1796247033520">
   <polygon class="fil0" points="15415.74,0.85 12558.65,0.85 12558.65,282.9 15415.74,286.16 "/>
   <polygon class="fil0" points="12843.96,1424.31 12843.96,0.85 12561.91,0.85 12558.65,1424.31 "/>
   <polygon class="fil0" points="15415.74,2853.96 12558.65,2853.96 12558.65,3136 15415.74,3139.26 "/>
   <polygon class="fil0" points="15130.28,1712.71 13126.32,1712.71 13126.32,1430.66 15130.28,1427.4 "/>
   <polygon class="fil0" points="12843.96,1715.79 12843.96,3139.26 12561.91,3139.26 12558.65,1715.79 "/>
   <g>
    <polygon class="fil1" points="6573.11,1424.31 6573.11,0.85 6291.05,0.85 6287.79,1424.31 "/>
    <polygon class="fil1" points="6573.11,1715.79 6573.11,3139.26 6291.05,3139.26 6287.79,1715.79 "/>
    <polygon class="fil1" points="6282.65,0.85 8289.6,0.85 8289.6,282.9 6282.65,286.16 "/>
    <polygon class="fil1" points="6282.65,2853.96 8290.59,2853.96 8290.59,3136 6282.65,3139.26 "/>
    <path class="fil1" d="M6282.65 3139l0 -1426.29 283.84 0 1.47 1426.29 -285.31 0zm0 -1710.49l0 -1427.66 282.06 0 1.47 1427.19 -283.53 0.47z"/>
    <g>
     <polygon class="fil1" points="8859.56,1026.12 8161.05,283.11 8288.56,0.85 9141.61,925.67 "/>
     <polygon class="fil1" points="8859.56,1424.31 8859.56,925.68 9141.61,925.68 9144.87,1424.31 "/>
     <polygon class="fil1" points="8859.56,2112.04 8161.05,2855.05 8288.56,3137.3 9141.61,2212.48 "/>
     <polygon class="fil1" points="8859.56,1713.84 8859.56,2212.47 9141.61,2212.47 9144.87,1713.84 "/>
    </g>
   </g>
   <polygon class="fil1" points="12285.36,0.85 9428.28,0.85 9428.28,282.9 12285.36,286.16 "/>
   <polygon class="fil1" points="9713.59,1424.31 9713.59,0.85 9431.54,0.85 9428.28,1424.31 "/>
   <polygon class="fil1" points="12285.36,2853.96 9428.28,2853.96 9428.28,3136 12285.36,3139.26 "/>
   <polygon class="fil1" points="12001.67,1712.71 9995.96,1712.71 9995.96,1430.66 12001.67,1427.4 "/>
   <polygon class="fil1" points="9713.59,1715.79 9713.59,3139.26 9431.54,3139.26 9428.28,1715.79 "/>
   <polygon class="fil1" points="5709.86,1026.12 5011.34,283.11 5138.85,0.85 5991.9,925.67 "/>
   <polygon class="fil1" points="5709.86,1713.84 5709.86,2212.47 5991.9,2212.47 5995.16,1713.84 "/>
   <polygon class="fil1" points="5712.32,3140.62 5712.32,1712.71 5995.58,1712.71 5997.63,3140.62 "/>
   <polygon class="fil1" points="4286.2,285.31 5135.91,285.31 5135.91,3.26 4286.2,0 "/>
   <polygon class="fil1" points="5709.18,1427.91 5709.18,925.68 5991.23,925.68 5992.05,1427.5 "/>
   <polygon class="fil1" points="3422.72,1026.12 4121.22,283.11 3993.72,0.85 3140.67,925.67 "/>
   <polygon class="fil1" points="4846.37,285.31 3996.65,285.31 3996.65,3.26 4846.37,0 "/>
   <polygon class="fil1" points="3423.39,1427.91 3423.39,925.68 3141.33,925.68 3140.52,1427.5 "/>
   <polygon class="fil1" points="5401.99,1709.45 3750.9,1709.45 3750.9,1427.4 5401.99,1424.14 "/>
   <polygon class="fil1" points="3425.83,3140.62 3425.83,1709.45 3142.56,1709.45 3140.52,3140.62 "/>
   <polygon class="fil1" points="287.78,2114.51 986.29,2857.51 858.78,3139.77 5.73,2214.95 "/>
   <polygon class="fil1" points="287.78,1426.78 287.78,928.15 5.73,928.15 2.47,1426.78 "/>
   <polygon class="fil1" points="285.31,0 285.31,1427.91 2.04,1427.91 -0,0 "/>
   <polygon class="fil1" points="1711.42,2855.31 861.72,2855.31 861.72,3137.36 1711.42,3140.62 "/>
   <polygon class="fil1" points="288.45,1712.71 288.45,2214.94 6.4,2214.94 5.58,1713.12 "/>
   <polygon class="fil1" points="2574.91,2114.51 1876.4,2857.51 2003.91,3139.77 2856.96,2214.95 "/>
   <polygon class="fil1" points="1151.27,2855.31 2000.97,2855.31 2000.97,3137.36 1151.27,3140.62 "/>
   <polygon class="fil1" points="2574.24,1712.71 2574.24,2214.94 2856.29,2214.94 2857.11,1713.12 "/>
   <polygon class="fil1" points="2571.8,0 2571.8,1431.17 2855.07,1431.17 2857.11,0 "/>
   <polygon class="fil1" points="15981.94,1712.71 15698.54,1712.71 15698.54,1430.66 15981.94,1427.4 "/>
   <polygon class="fil1" points="19109.74,0.85 19109.74,2284.23 18827.69,2284.23 18824.43,0.85 "/>
   <polygon class="fil1" points="18084.46,2853.97 18827.48,2155.47 19109.74,2282.96 18184.91,3136.01 "/>
   <polygon class="fil1" points="16824.41,0.85 18967.99,0.85 18967.99,282.9 16825.11,284.38 "/>
   <polygon class="fil1" points="16452.59,2853.97 18184.91,2853.97 18184.91,3136.01 16452.59,3139.28 "/>
   <polygon class="fil1" points="16253.79,3139.26 16253.79,1430.14 16535.83,1430.14 16539.09,3139.26 "/>
   <polygon class="fil1" points="16824.41,1430.13 18539.12,1430.13 18539.12,1712.18 16824.41,1715.44 "/>
   <path class="fil1" d="M19400.75 3139.28l0 -1424.73 283.28 -0.54 2.03 1425.27 -285.31 0zm0 -1709.15l0 -574.24 282.05 0 0.82 574.24 -282.87 0z"/>
   <polygon class="fil1" points="20426.02,286.16 19683.01,984.67 19400.75,857.16 20325.57,4.11 "/>
   <polygon class="fil1" points="22057.89,286.16 20325.58,286.16 20325.58,4.11 22057.89,0.85 "/>
   <polygon class="fil1" points="23817.96,1143.99 21150.12,1143.99 21150.12,1426.03 23817.96,1429.3 "/>
   <polygon class="fil1" points="22626.7,1426.23 22626.7,2.76 22344.66,2.76 22341.39,1426.23 "/>
   <polygon class="fil1" points="22626.7,3149.05 22626.7,1712.71 22342.96,1712.71 22341.39,3149.05 "/>
  </g>
 </g>
</svg>
